<?xml version="1.0" encoding="UTF-8" standalone="no"?>
<svg width="184px" height="133px" viewBox="0 0 184 133" version="1.1" xmlns="http://www.w3.org/2000/svg" xmlns:xlink="http://www.w3.org/1999/xlink" xmlns:sketch="http://www.bohemiancoding.com/sketch/ns">
    <!-- Generator: Sketch 3.3.3 (12072) - http://www.bohemiancoding.com/sketch -->
    <title>Slice 1</title>
    <desc>Created with Sketch.</desc>
    <defs>
        <path id="path-1" d="M0,0 L184,0 L184,132 L0,132 L0,0 Z"></path>
    </defs>
    <g id="Page-1" stroke="none" stroke-width="1" fill="none" fill-rule="evenodd" sketch:type="MSPage">
        <g id="hooklift-logo" sketch:type="MSLayerGroup" transform="translate(0.000000, 1.000000)">
            <path d="M31.7907725,74.5649863 C28.3844725,74.5649863 26.4500288,75.6991498 24.8687788,77.2199568 L24.8687788,66.6943603 C24.8687788,66.5394726 24.7066288,66.359826 24.5520975,66.359826 L18.3876663,66.359826 C18.233135,66.359826 18.1125288,66.5394726 18.1125288,66.6943603 L18.1125288,98.4726766 C18.1125288,98.6271324 18.2328475,98.7480484 18.3870913,98.7480484 L24.5526725,98.7480484 C24.7069163,98.7480484 24.8687788,98.6271324 24.8687788,98.4726766 L24.8687788,85.8368074 C24.8687788,82.6472153 26.4661288,80.6782992 29.0320663,80.6782992 C31.59786,80.6782992 33.0625288,82.3172872 33.0625288,85.5068794 L33.0625288,98.4705173 C33.0625288,98.6261248 33.2305725,98.7480484 33.3859663,98.7480484 L39.547235,98.7480484 C39.7026288,98.7480484 39.8187788,98.6261248 39.8187788,98.4705173 L39.8187788,83.3804846 C39.8187788,77.931634 36.8782288,74.5649863 31.7907725,74.5649863" id="Fill-391" fill="#FFFFFF" sketch:type="MSShapeGroup"></path>
            <path d="M119.935987,66.5038168 L113.780468,66.5038168 C113.623493,66.5038168 113.562543,66.6374002 113.562543,66.794735 L113.562543,98.4239215 C113.562543,98.5788092 113.621481,98.7480916 113.776012,98.7480916 L119.940443,98.7480916 C120.094974,98.7480916 120.175043,98.5788092 120.175043,98.4239215 L120.175043,66.794735 C120.175043,66.6374002 120.093106,66.5038168 119.935987,66.5038168" id="Fill-393" fill="#FFFFFF" sketch:type="MSShapeGroup"></path>
            <path d="M129.885011,76.868048 L123.724461,76.868048 C123.568779,76.868048 123.419279,77.0465431 123.419279,77.2022944 L123.419279,98.4233457 C123.419279,98.5785213 123.568204,98.7480916 123.723167,98.7480916 L129.886161,98.7480916 C130.041123,98.7480916 130.175529,98.5785213 130.175529,98.4233457 L130.175529,77.2022944 C130.175529,77.0465431 130.040692,76.868048 129.885011,76.868048" id="Fill-395" fill="#FFFFFF" sketch:type="MSShapeGroup"></path>
            <path d="M129.926382,66.5038168 L123.696257,66.5038168 C123.541438,66.5038168 123.426007,66.6355289 123.426007,66.7905605 L123.426007,72.2061592 C123.426007,72.3630622 123.543019,72.5496183 123.699707,72.5496183 L129.922932,72.5496183 C130.079619,72.5496183 130.182257,72.3630622 130.182257,72.2061592 L130.182257,66.7905605 C130.182257,66.6355289 130.081201,66.5038168 129.926382,66.5038168" id="Fill-397" fill="#FFFFFF" sketch:type="MSShapeGroup"></path>
            <path d="M163.642758,92.6718883 C162.769764,93.0786844 161.81857,93.310872 160.746914,93.310872 C159.242858,93.310872 158.600583,92.5577378 158.600583,91.0072776 L158.600583,82.4819778 L163.669207,82.4819778 C163.823164,82.4819778 163.919332,82.3875481 163.919332,82.2333802 L163.919332,77.300294 C163.919332,77.1461261 163.823164,77.0119668 163.669207,77.0119668 L158.600583,77.0119668 L158.600583,67.3209788 C158.600583,67.1629243 158.410689,67.0287651 158.252851,67.0287651 L152.100208,67.0287651 C151.94237,67.0287651 151.844333,67.1629243 151.844333,67.3209788 L151.844333,77.0119668 L148.394332,77.0119668 L142.931833,77.0119668 L142.931833,74.6892275 C142.931833,72.9172318 143.846945,72.1199058 145.395276,72.1199058 C146.402533,72.1199058 147.356745,72.1471119 148.158151,72.295234 C148.332664,72.3274783 148.538083,72.1940388 148.538083,72.0164074 L148.538083,67.1599014 C148.538083,67.034667 148.426964,66.9223878 148.306933,66.8874085 C147.115245,66.5399189 145.724751,66.4496637 143.71527,66.4496637 C141.326433,66.4496637 139.486433,67.0697902 138.247739,68.3101871 C137.009045,69.5505841 136.319333,71.4554434 136.319333,74.068957 L136.319333,77.0119668 L133.784733,77.0119668 C133.630489,77.0119668 133.444333,77.1003507 133.444333,77.2548065 L133.444333,82.2326604 C133.444333,82.3871162 133.630489,82.4819778 133.784733,82.4819778 L136.319333,82.4819778 L136.319333,98.4237487 C136.319333,98.5786364 136.482201,98.7480628 136.63702,98.7480628 L142.800733,98.7480628 C142.955551,98.7480628 143.075582,98.5786364 143.075582,98.4237487 L143.075582,82.4819778 L147.950864,82.4819778 L148.433864,82.4819778 L151.844333,82.4819778 L151.844333,92.1148109 C151.844333,97.6078534 154.616408,99.2469854 158.730533,99.2469854 C160.91237,99.2469854 162.527114,98.7497902 163.910564,97.9557749 C163.997964,97.9055372 164.063083,97.8115394 164.063083,97.710776 L164.063083,92.925812 C164.063083,92.7191032 163.82992,92.5846561 163.642758,92.6718883" id="Fill-399" fill="#FFFFFF" sketch:type="MSShapeGroup"></path>
            <path d="M100.559407,86.3716161 L109.162269,77.429012 C109.358201,77.2257579 109.214307,76.868048 108.932126,76.868048 L102.638032,76.868048 C102.206782,76.868048 101.796232,77.0582028 101.491626,77.3638037 L95.5937069,83.3036598 L95.5937069,66.8422377 C95.5937069,66.6851908 95.4610256,66.5038168 95.3043381,66.5038168 L89.1479569,66.5038168 C88.9911256,66.5038168 88.8374569,66.6853348 88.8374569,66.8425256 L88.8374569,98.4704166 C88.8374569,98.6261679 88.9899756,98.7480916 89.1456569,98.7480916 L95.3064944,98.7480916 C95.4620319,98.7480916 95.5937069,98.6261679 95.5937069,98.4704166 L95.5937069,91.6336227 C95.5937069,91.5678386 95.6149819,91.5046456 95.6586819,91.4555594 L96.0794381,90.9822595 C96.1311881,90.9243926 96.2210319,90.9235289 96.2737881,90.9805322 L103.160851,98.4129815 C103.448351,98.6896489 103.787457,98.7480916 104.014294,98.7480916 L111.191732,98.7480916 C111.434238,98.7480916 111.561313,98.4620676 111.398013,98.2827088 L100.559407,86.3716161 Z" id="Fill-401" fill="#FFFFFF" sketch:type="MSShapeGroup"></path>
            <path d="M73.6983394,74.5516567 C71.6000206,74.5516567 69.6259019,75.0793688 67.8948644,76.0026491 C69.0641269,77.7878879 69.8462706,79.8438923 70.1448394,82.0562238 C71.1443331,81.3242499 72.3654894,80.8790198 73.6983394,80.8790198 C77.0375081,80.8790198 79.7446081,83.5896981 79.7446081,86.9334582 C79.7446081,90.2776502 77.0375081,92.9883285 73.6983394,92.9883285 C71.6760644,92.9883285 69.8967269,91.9847254 68.7991956,90.4577287 C67.8408144,92.4217505 66.4662769,94.1413492 64.7773581,95.4930177 C67.0280519,97.8444026 70.1886831,99.3152598 73.6983394,99.3152598 C80.5271831,99.3152598 86.0629956,93.7721234 86.0629956,86.9334582 C86.0629956,80.0956567 80.5271831,74.5516567 73.6983394,74.5516567" id="Fill-403" fill="#FFFFFF" sketch:type="MSShapeGroup"></path>
            <g id="Group-407">
                <mask id="mask-2" sketch:name="Clip 406" fill="white">
                    <use xlink:href="#path-1"></use>
                </mask>
                <g id="Clip-406"></g>
                <path d="M61.0941669,83.6635001 C61.0941669,86.9321195 58.4480169,89.581908 55.1838856,89.581908 C51.9197544,89.581908 49.2737481,86.9321195 49.2737481,83.6635001 C49.2737481,80.3948807 51.9197544,77.7450923 55.1838856,77.7450923 C58.4480169,77.7450923 61.0941669,80.3948807 61.0941669,83.6635001 L61.0941669,83.6635001 Z M54.3374856,71.1324249 C47.7249856,71.5765034 42.6332169,77.0093758 42.6332169,83.6635001 C42.6332169,90.6081108 48.2519731,96.2379036 55.1871919,96.2379036 C62.1222669,96.2379036 67.7428919,90.6081108 67.7428919,83.6635001 C67.7428919,77.0155655 62.5312356,71.5864358 56.0624856,71.1334325 L56.0624856,-2.87895311e-05 L54.3374856,-2.87895311e-05 L54.3374856,71.1324249 Z" id="Fill-405" fill="#FFFFFF" sketch:type="MSShapeGroup" mask="url(#mask-2)"></path>
            </g>
        </g>
    </g>
</svg>